{
  "accessors": [
    {
      "bufferView": 2,
      "componentType": 5126,
      "count": 98,
      "max": [
        2.4579501152038574,
        -3.4962000846862793,
        78.80229949951172
      ],
      "min": [
        -2.6366500854492188,
        -5.392000198364258,
        76.6365966796875
      ],
      "type": "VEC3"
    },
    {
      "bufferView": 2,
      "byteOffset": 1176,
      "componentType": 5126,
      "count": 98,
      "max": [
        0.9925026297569275,
        0.5714604258537292,
        1.0
      ],
      "min": [
        -0.992509126663208,
        -0.9738146066665649,
        -1.0
      ],
      "type": "VEC3"
    },
    {
      "bufferView": 1,
      "componentType": 5126,
      "count": 98,
      "max": [
        0.21655699610710144,
        0.780610978603363
      ],
      "min": [
        0.21655699610710144,
        0.780610978603363
      ],
      "type": "VEC2"
    },
    {
      "bufferView": 0,
      "componentType": 5125,
      "count": 504,
      "type": "SCALAR"
    },
    {
      "bufferView": 2,
      "byteOffset": 2352,
      "componentType": 5126,
      "count": 941,
      "max": [
        32.3620491027832,
        14.503600120544434,
        84.29449462890625
      ],
      "min": [
        -32.3620491027832,
        -10.749600410461426,
        11.81029987335205
      ],
      "type": "VEC3"
    },
    {
      "bufferView": 2,
      "byteOffset": 13644,
      "componentType": 5126,
      "count": 941,
      "max": [
        0.9999816417694092,
        0.9998008608818054,
        0.9960112571716309
      ],
      "min": [
        -0.9999816417694092,
        -0.999056875705719,
        -0.9978805780410767
      ],
      "type": "VEC3"
    },
    {
      "bufferView": 1,
      "byteOffset": 784,
      "componentType": 5126,
      "count": 941,
      "max": [
        0.9983000159263611,
        -0.029100000858306885
      ],
      "min": [
        -0.9998000264167786,
        -0.9708999991416931
      ],
      "type": "VEC2"
    },
    {
      "bufferView": 0,
      "byteOffset": 2016,
      "componentType": 5125,
      "count": 4602,
      "type": "SCALAR"
    },
    {
      "bufferView": 2,
      "byteOffset": 24936,
      "componentType": 5126,
      "count": 596,
      "max": [
        13.355649948120117,
        3.254699945449829,
        78.93779754638672
      ],
      "min": [
        -13.495950698852539,
        -14.503600120544434,
        0.0
      ],
      "type": "VEC3"
    },
    {
      "bufferView": 2,
      "byteOffset": 32088,
      "componentType": 5126,
      "count": 596,
      "max": [
        0.9990472197532654,
        0.9830612540245056,
        0.9938791394233704
      ],
      "min": [
        -0.9990472197532654,
        -0.9999112486839294,
        -0.9999709725379944
      ],
      "type": "VEC3"
    },
    {
      "bufferView": 1,
      "byteOffset": 8312,
      "componentType": 5126,
      "count": 596,
      "max": [
        0.9921000003814697,
        0.3827509880065918
      ],
      "min": [
        0.020400000736117363,
        -0.9659000039100647
      ],
      "type": "VEC2"
    },
    {
      "bufferView": 0,
      "byteOffset": 20424,
      "componentType": 5125,
      "count": 2970,
      "type": "SCALAR"
    }
  ],
  "asset": {
    "extras": {
      "author": "mariaaleperez142 (https://sketchfab.com/mariaaleperez142)",
      "license": "CC-BY-4.0 (http://creativecommons.org/licenses/by/4.0/)",
      "source": "https://sketchfab.com/3d-models/feathers-mc-graw-a3af04bda34742f687513df316df1b81",
      "title": "Feathers Mc Graw"
    },
    "generator": "Sketchfab-16.75.0",
    "version": "2.0"
  },
  "bufferViews": [
    {
      "buffer": 0,
      "byteLength": 32304,
      "name": "floatBufferViews",
      "target": 34963
    },
    {
      "buffer": 0,
      "byteLength": 13080,
      "byteOffset": 32304,
      "byteStride": 8,
      "name": "floatBufferViews",
      "target": 34962
    },
    {
      "buffer": 0,
      "byteLength": 39240,
      "byteOffset": 45384,
      "byteStride": 12,
      "name": "floatBufferViews",
      "target": 34962
    }
  ],
  "buffers": [
    {
      "byteLength": 84624,
      "uri": "scene.bin"
    }
  ],
  "images": [
    {
      "uri": "textures/Tex_0029_0_png_baseColor.png"
    },
    {
      "uri": "textures/Tex_0034_0_png_baseColor.png"
    },
    {
      "uri": "textures/Tex_0035_0_png_baseColor.png"
    }
  ],
  "materials": [
    {
      "doubleSided": true,
      "name": "Tex_0029_0_png",
      "pbrMetallicRoughness": {
        "baseColorTexture": {
          "index": 0
        },
        "metallicFactor": 0.0
      }
    },
    {
      "doubleSided": true,
      "name": "Tex_0034_0_png",
      "pbrMetallicRoughness": {
        "baseColorTexture": {
          "index": 1
        },
        "metallicFactor": 0.0
      }
    },
    {
      "doubleSided": true,
      "name": "Tex_0035_0_png",
      "pbrMetallicRoughness": {
        "baseColorTexture": {
          "index": 2
        },
        "metallicFactor": 0.0
      }
    }
  ],
  "meshes": [
    {
      "name": "Object_0",
      "primitives": [
        {
          "attributes": {
            "NORMAL": 1,
            "POSITION": 0,
            "TEXCOORD_0": 2
          },
          "indices": 3,
          "material": 0,
          "mode": 4
        }
      ]
    },
    {
      "name": "Object_1",
      "primitives": [
        {
          "attributes": {
            "NORMAL": 5,
            "POSITION": 4,
            "TEXCOORD_0": 6
          },
          "indices": 7,
          "material": 2,
          "mode": 4
        }
      ]
    },
    {
      "name": "Object_2",
      "primitives": [
        {
          "attributes": {
            "NORMAL": 9,
            "POSITION": 8,
            "TEXCOORD_0": 10
          },
          "indices": 11,
          "material": 1,
          "mode": 4
        }
      ]
    }
  ],
  "nodes": [
    {
      "children": [
        1
      ],
      "matrix": [
        1.0,
        0.0,
        0.0,
        0.0,
        0.0,
        2.220446049250313e-16,
        -1.0,
        0.0,
        0.0,
        1.0,
        2.220446049250313e-16,
        0.0,
        0.0,
        0.0,
        0.0,
        1.0
      ],
      "name": "Sketchfab_model"
    },
    {
      "children": [
        2,
        3,
        4
      ],
      "name": "feathersmcgraw.obj.cleaner.materialmerger.gles"
    },
    {
      "mesh": 0,
      "name": "Object_2"
    },
    {
      "mesh": 1,
      "name": "Object_3"
    },
    {
      "mesh": 2,
      "name": "Object_4"
    }
  ],
  "samplers": [
    {
      "magFilter": 9729,
      "minFilter": 9987,
      "wrapS": 10497,
      "wrapT": 10497
    }
  ],
  "scene": 0,
  "scenes": [
    {
      "name": "Sketchfab_Scene",
      "nodes": [
        0
      ]
    }
  ],
  "textures": [
    {
      "sampler": 0,
      "source": 0
    },
    {
      "sampler": 0,
      "source": 1
    },
    {
      "sampler": 0,
      "source": 2
    }
  ]
}
